<svg width="26" height="25" viewBox="0 0 26 25" fill="none" xmlns="http://www.w3.org/2000/svg">
<path d="M22.6547 19.6278C22.2021 19.0222 21.5326 18.5566 20.5609 18.7084C18.315 19.0594 19.5081 17.3047 17.8939 18.0066C16.6025 18.5681 15.6713 20.1589 15.3672 20.8842C15.2736 20.4397 14.918 19.4664 14.2443 19.1295C13.402 18.7084 13.1213 19.4103 12.63 18.7084C12.1387 18.0066 12.1387 17.024 11.7176 16.0414C11.2965 15.0588 13.1213 13.5849 14.2443 14.1464C15.3672 14.7079 16.0691 14.357 16.6305 15.1992C17.192 16.0414 17.8939 17.0942 17.8939 14.1464C17.8939 11.1986 19.2976 9.86512 19.9292 9.9353C20.5609 10.0055 22.5261 9.30349 22.1752 8.60179C21.8242 7.90009 19.9292 7.54901 19.9292 6.91735C19.9292 6.28568 20.7715 4.95233 19.9292 4.32067C19.087 3.689 16.9815 2.42567 15.3672 2.56604C13.753 2.70641 13.2556 3.33849 13.2556 3.89997C13.2556 4.46145 15.3672 5.51439 14.2443 6.21587C13.1213 6.91735 9.47167 8.03994 9.47167 6.91735C9.47167 5.79475 9.26112 3.40846 9.96297 3.40846C10.6648 3.40846 10.8754 1.65384 11.2965 1.72402C11.7176 1.79421 13.4722 1.02262 14.2443 1.37332C14.4809 1.48084 15.2586 1.27834 16.1343 0.913443M22.6547 19.6278C24.1286 17.6347 25 15.1691 25 12.5C25 6.95694 21.2417 2.29168 16.1343 0.913443M22.6547 19.6278C20.4689 22.5835 16.9583 24.5 13 24.5C12.2953 24.5 11.6048 24.4393 10.9334 24.3227M10.9334 24.3227C11.0241 23.8006 11.1428 23.3692 11.2965 23.1301C11.9281 22.1475 14.0337 22.8494 14.2443 22.3581C14.4548 21.8668 13.5424 21.3053 12.63 20.8842C11.7176 20.4631 10.1735 20.042 9.96297 18.0066C9.75241 15.9712 8.76982 16.3221 8.55926 16.0414C8.34871 15.7607 5.89223 14.9886 5.11998 13.5849C4.34773 12.1812 5.1202 9.79493 5.11998 9.16327C5.11983 8.71675 3.18372 8.23743 1.87768 7.98668M10.9334 24.3227C5.29078 23.3433 1 18.4227 1 12.5C1 10.9036 1.31174 9.37994 1.87768 7.98668M1.87768 7.98668C3.66115 3.59599 7.96902 0.5 13 0.5C14.0844 0.5 15.1351 0.643826 16.1343 0.913443" stroke="white" stroke-linecap="square" stroke-linejoin="round"/>
</svg>
